<svg xmlns="http://www.w3.org/2000/svg" viewBox="0 0 200 220" width="200" height="220">
  <g fill="none" stroke="#3E2418" stroke-width="4.5" stroke-linecap="round" stroke-linejoin="round">
    <!-- ears flattened -->
    <path d="M72 72 L56 36 L90 56"/>
    <path d="M128 72 L144 36 L110 56"/>
    <path d="M76 66 L64 44 L88 56"/>
    <path d="M124 66 L136 44 L112 56"/>
    <!-- head (squished, face radius decreased) -->
    <path d="M64 96 C60 70 76 58 100 58 C124 58 140 70 136 96 C138 112 124 122 100 122 C76 122 62 112 64 96 Z"/>
    <!-- eyes narrowed (angry/pressed) -->
    <path d="M80 86 C84 82 92 82 96 86"/>
    <path d="M104 86 C108 82 116 82 120 86"/>
    <circle cx="88" cy="88" r="4" fill="#3E2418"/>
    <circle cx="112" cy="88" r="4" fill="#3E2418"/>
    <!-- nose -->
    <path d="M100 96 L96 100 L104 100 Z"/>
    <!-- mouth (flat/strained) -->
    <path d="M92 106 L100 108 L108 106"/>
    <!-- whiskers -->
    <path d="M72 92 L46 88"/>
    <path d="M70 100 L46 102"/>
    <path d="M128 92 L154 88"/>
    <path d="M130 100 L154 102"/>
    <!-- body (crouched, shorter) -->
    <path d="M72 118 C68 136 72 158 84 170 C92 178 108 178 116 170 C128 158 132 136 128 118"/>
    <!-- paws tucked under -->
    <path d="M80 168 L74 180 L86 182 L90 172"/>
    <path d="M120 168 L126 180 L114 182 L110 172"/>
    <!-- tail -->
    <path d="M128 152 C146 148 158 158 154 172 C150 182 140 180 142 168"/>
    <!-- strain marks -->
    <path d="M88 50 L86 38"/>
    <path d="M100 46 L100 34"/>
    <path d="M112 50 L114 38"/>
  </g>
</svg>
